<svg xmlns="http://www.w3.org/2000/svg" xmlns:xlink="http://www.w3.org/1999/xlink" id="svg" width="400" height="400" viewBox="0, 0, 400,400"><g id="svgg"><path id="path0" d="M91.251 108.831 C 88.265 110.026,87.245 114.458,89.393 116.900 C 90.768 118.462,95.346 118.548,96.764 117.038 C 100.676 112.874,96.538 106.714,91.251 108.831 M304.800 109.079 C 302.000 110.521,301.426 114.685,303.694 117.100 C 304.985 118.474,309.467 118.419,310.788 117.013 C 314.602 112.952,309.754 106.528,304.800 109.079 M47.067 203.467 C 46.594 203.940,46.783 205.488,47.374 205.979 C 47.690 206.241,48.064 206.981,48.205 207.623 C 48.346 208.265,48.630 208.895,48.836 209.023 C 49.043 209.150,49.553 209.917,49.970 210.727 C 50.626 212.000,52.221 214.063,53.583 215.400 C 55.211 216.999,59.243 220.154,60.400 220.736 C 60.950 221.012,62.120 221.676,63.000 222.210 C 63.880 222.744,65.050 223.367,65.600 223.593 C 66.150 223.820,67.078 224.274,67.662 224.603 C 68.246 224.931,69.063 225.200,69.477 225.200 C 69.892 225.200,70.896 225.539,71.709 225.954 C 72.522 226.368,74.025 226.833,75.049 226.986 C 76.073 227.140,77.471 227.517,78.155 227.824 C 82.501 229.774,104.195 229.527,109.400 227.468 C 110.280 227.120,111.496 226.827,112.101 226.818 C 112.707 226.808,113.875 226.440,114.696 226.000 C 115.516 225.560,116.515 225.200,116.915 225.200 C 117.315 225.200,118.307 224.849,119.121 224.420 C 119.934 223.991,120.870 223.532,121.200 223.401 C 121.530 223.269,122.520 222.728,123.400 222.197 C 124.280 221.666,125.531 220.931,126.180 220.564 C 126.830 220.197,127.608 219.650,127.909 219.348 C 128.210 219.047,128.579 218.796,128.729 218.792 C 129.611 218.766,137.200 210.651,137.200 209.733 C 137.200 209.538,137.515 208.933,137.900 208.389 C 138.890 206.990,139.579 204.139,139.054 203.614 C 138.590 203.150,47.529 203.004,47.067 203.467 M261.154 203.700 C 261.014 205.216,262.148 208.166,264.114 211.400 C 264.792 212.516,271.079 218.800,271.517 218.800 C 271.714 218.800,272.202 219.160,272.600 219.600 C 272.998 220.040,273.568 220.400,273.866 220.400 C 274.164 220.400,274.716 220.760,275.093 221.200 C 275.470 221.640,276.074 222.000,276.435 222.000 C 276.796 222.000,277.550 222.360,278.109 222.800 C 278.669 223.240,279.368 223.601,279.663 223.603 C 279.958 223.604,280.740 223.963,281.400 224.400 C 282.060 224.837,282.960 225.202,283.400 225.211 C 283.840 225.220,284.920 225.575,285.800 226.000 C 286.680 226.425,287.850 226.787,288.400 226.804 C 288.950 226.821,290.120 227.111,291.000 227.449 C 296.796 229.674,316.491 229.755,322.902 227.581 C 324.167 227.151,325.614 226.800,326.117 226.800 C 326.620 226.800,327.737 226.440,328.600 226.000 C 329.463 225.560,330.446 225.199,330.785 225.198 C 331.394 225.197,334.869 223.559,335.745 222.860 C 335.995 222.661,336.611 222.372,337.113 222.218 C 341.311 220.930,350.660 212.100,351.808 208.338 C 351.966 207.822,352.327 207.130,352.610 206.800 C 353.084 206.249,353.353 204.933,353.244 203.700 C 353.209 203.303,343.710 203.200,307.200 203.200 C 270.691 203.200,261.190 203.303,261.154 203.700 M170.000 300.000 L 170.000 305.200 201.600 305.200 L 233.200 305.200 233.200 300.000 L 233.200 294.800 201.600 294.800 L 170.000 294.800 170.000 300.000 " stroke="none" fill="#fab418" fill-rule="evenodd"></path><path id="path1" d="M190.376 78.046 C 189.929 78.881,190.006 80.070,190.684 82.800 L 191.032 84.200 201.456 84.307 L 211.880 84.413 212.317 81.773 C 212.592 80.111,212.618 78.774,212.387 78.166 L 212.020 77.200 201.424 77.200 C 191.047 77.200,190.819 77.217,190.376 78.046 M142.950 312.600 C 142.869 312.820,142.756 314.890,142.701 317.200 L 142.600 321.400 200.957 321.501 C 243.755 321.576,259.459 321.483,259.857 321.152 C 260.509 320.612,260.568 318.089,259.967 316.526 C 259.728 315.907,259.411 314.693,259.261 313.830 L 258.988 312.259 201.043 312.230 C 162.751 312.210,143.048 312.336,142.950 312.600 " stroke="none" fill="#d8d8d8" fill-rule="evenodd"></path><path id="path2" d="M183.200 81.549 C 183.200 91.570,183.174 91.913,182.400 92.116 C 181.960 92.231,181.600 92.612,181.600 92.963 C 181.600 93.333,181.265 93.600,180.800 93.600 C 180.267 93.600,180.000 93.867,180.000 94.400 C 180.000 94.933,179.733 95.200,179.200 95.200 C 178.667 95.200,178.400 95.467,178.400 96.000 C 178.400 96.652,178.133 96.800,176.963 96.800 C 175.862 96.800,175.476 96.987,175.316 97.600 C 175.200 98.043,174.770 98.400,174.353 98.400 C 173.867 98.400,173.600 98.683,173.600 99.200 C 173.600 99.867,173.333 100.000,172.000 100.000 C 170.667 100.000,170.400 100.133,170.400 100.800 C 170.400 101.452,170.133 101.600,168.963 101.600 C 167.862 101.600,167.476 101.787,167.316 102.400 C 167.152 103.027,166.770 103.200,165.553 103.200 C 164.267 103.200,164.000 103.337,164.000 104.000 C 164.000 104.667,163.733 104.800,162.400 104.800 C 161.067 104.800,160.800 104.933,160.800 105.600 C 160.800 106.305,160.533 106.400,158.563 106.400 C 156.662 106.400,156.294 106.520,156.116 107.200 C 155.937 107.886,155.570 108.000,153.553 108.000 C 151.467 108.000,151.200 108.091,151.200 108.800 C 151.200 109.530,150.933 109.600,148.163 109.600 C 145.462 109.600,145.102 109.689,144.916 110.400 C 144.722 111.143,144.370 111.200,139.953 111.200 C 135.467 111.200,135.200 111.245,135.200 112.000 C 135.200 112.781,134.933 112.800,124.047 112.800 C 113.230 112.800,112.887 112.776,112.684 112.000 C 112.498 111.290,112.138 111.200,109.484 111.200 C 106.830 111.200,106.470 111.110,106.284 110.400 C 106.169 109.960,105.788 109.600,105.437 109.600 C 104.960 109.600,104.800 109.197,104.800 108.000 C 104.800 106.667,104.667 106.400,104.000 106.400 C 103.467 106.400,103.200 106.133,103.200 105.600 C 103.200 105.067,102.933 104.800,102.400 104.800 C 101.867 104.800,101.600 104.533,101.600 104.000 C 101.600 103.467,101.333 103.200,100.800 103.200 C 100.267 103.200,100.000 102.933,100.000 102.400 C 100.000 101.630,99.733 101.600,92.963 101.600 C 86.262 101.600,85.915 101.638,85.716 102.400 C 85.600 102.843,85.170 103.200,84.753 103.200 C 84.267 103.200,84.000 103.483,84.000 104.000 C 84.000 104.533,83.733 104.800,83.200 104.800 C 82.533 104.800,82.400 105.067,82.400 106.400 C 82.400 107.733,82.267 108.000,81.600 108.000 C 80.838 108.000,80.800 108.267,80.800 113.600 C 80.800 118.933,80.838 119.200,81.600 119.200 C 82.252 119.200,82.400 119.467,82.400 120.637 C 82.400 121.715,82.591 122.125,83.163 122.274 C 83.583 122.384,84.016 122.817,84.126 123.237 C 84.275 123.809,84.685 124.000,85.763 124.000 C 86.933 124.000,87.200 124.148,87.200 124.800 C 87.200 125.333,86.933 125.600,86.400 125.600 C 85.733 125.600,85.600 125.867,85.600 127.200 C 85.600 128.533,85.467 128.800,84.800 128.800 C 84.133 128.800,84.000 129.067,84.000 130.400 C 84.000 131.733,83.867 132.000,83.200 132.000 C 82.533 132.000,82.400 132.267,82.400 133.600 C 82.400 134.933,82.267 135.200,81.600 135.200 C 80.933 135.200,80.800 135.467,80.800 136.800 C 80.800 138.133,80.667 138.400,80.000 138.400 C 79.333 138.400,79.200 138.667,79.200 140.000 C 79.200 141.333,79.067 141.600,78.400 141.600 C 77.733 141.600,77.600 141.867,77.600 143.200 C 77.600 144.533,77.467 144.800,76.800 144.800 C 76.133 144.800,76.000 145.067,76.000 146.400 C 76.000 147.733,75.867 148.000,75.200 148.000 C 74.533 148.000,74.400 148.267,74.400 149.600 C 74.400 150.933,74.267 151.200,73.600 151.200 C 72.933 151.200,72.800 151.467,72.800 152.800 C 72.800 154.133,72.667 154.400,72.000 154.400 C 71.333 154.400,71.200 154.667,71.200 156.000 C 71.200 157.333,71.067 157.600,70.400 157.600 C 69.733 157.600,69.600 157.867,69.600 159.200 C 69.600 160.533,69.467 160.800,68.800 160.800 C 68.133 160.800,68.000 161.067,68.000 162.400 C 68.000 163.733,67.867 164.000,67.200 164.000 C 66.533 164.000,66.400 164.267,66.400 165.600 C 66.400 166.933,66.267 167.200,65.600 167.200 C 64.933 167.200,64.800 167.467,64.800 168.800 C 64.800 170.133,64.667 170.400,64.000 170.400 C 63.333 170.400,63.200 170.667,63.200 172.000 C 63.200 173.333,63.067 173.600,62.400 173.600 C 61.733 173.600,61.600 173.867,61.600 175.200 C 61.600 176.533,61.467 176.800,60.800 176.800 C 60.133 176.800,60.000 177.067,60.000 178.400 C 60.000 179.733,59.867 180.000,59.200 180.000 C 58.533 180.000,58.400 180.267,58.400 181.600 C 58.400 182.933,58.267 183.200,57.600 183.200 C 56.933 183.200,56.800 183.467,56.800 184.800 C 56.800 186.133,56.667 186.400,56.000 186.400 C 55.333 186.400,55.200 186.667,55.200 188.000 C 55.200 189.333,55.067 189.600,54.400 189.600 C 53.737 189.600,53.600 189.867,53.600 191.153 C 53.600 192.370,53.427 192.752,52.800 192.916 C 52.187 193.076,52.000 193.462,52.000 194.563 L 52.000 196.000 45.600 196.000 L 39.200 196.000 39.200 202.237 C 39.200 208.138,39.243 208.486,40.000 208.684 C 40.627 208.848,40.800 209.230,40.800 210.447 C 40.800 211.733,40.937 212.000,41.600 212.000 C 42.252 212.000,42.400 212.267,42.400 213.437 C 42.400 214.538,42.587 214.924,43.200 215.084 C 43.643 215.200,44.000 215.630,44.000 216.047 C 44.000 216.533,44.283 216.800,44.800 216.800 C 45.333 216.800,45.600 217.067,45.600 217.600 C 45.600 218.125,45.867 218.400,46.376 218.400 C 46.984 218.400,47.179 218.725,47.276 219.900 C 47.393 221.319,47.481 221.407,48.900 221.524 C 50.075 221.621,50.400 221.816,50.400 222.424 C 50.400 222.933,50.675 223.200,51.200 223.200 C 51.733 223.200,52.000 223.467,52.000 224.000 C 52.000 224.533,52.267 224.800,52.800 224.800 C 53.333 224.800,53.600 225.067,53.600 225.600 C 53.600 226.267,53.867 226.400,55.200 226.400 C 56.533 226.400,56.800 226.533,56.800 227.200 C 56.800 227.717,57.067 228.000,57.553 228.000 C 57.970 228.000,58.400 228.357,58.516 228.800 C 58.675 229.406,59.062 229.600,60.116 229.600 C 61.170 229.600,61.557 229.794,61.716 230.400 C 61.894 231.080,62.262 231.200,64.163 231.200 C 66.133 231.200,66.400 231.295,66.400 232.000 C 66.400 232.663,66.667 232.800,67.953 232.800 C 69.170 232.800,69.552 232.973,69.716 233.600 C 69.902 234.310,70.262 234.400,72.916 234.400 C 75.570 234.400,75.930 234.490,76.116 235.200 C 76.321 235.984,76.662 236.000,92.963 236.000 C 109.333 236.000,109.600 235.987,109.600 235.200 C 109.600 234.467,109.867 234.400,112.800 234.400 C 115.733 234.400,116.000 234.333,116.000 233.600 C 116.000 232.889,116.267 232.800,118.400 232.800 C 120.533 232.800,120.800 232.711,120.800 232.000 C 120.800 231.333,121.067 231.200,122.400 231.200 C 123.733 231.200,124.000 231.067,124.000 230.400 C 124.000 229.733,124.267 229.600,125.600 229.600 C 126.933 229.600,127.200 229.467,127.200 228.800 C 127.200 228.133,127.467 228.000,128.800 228.000 C 130.133 228.000,130.400 227.867,130.400 227.200 C 130.400 226.548,130.667 226.400,131.837 226.400 C 132.938 226.400,133.324 226.213,133.484 225.600 C 133.600 225.157,134.030 224.800,134.447 224.800 C 134.933 224.800,135.200 224.517,135.200 224.000 C 135.200 223.467,135.467 223.200,136.000 223.200 C 136.533 223.200,136.800 222.933,136.800 222.400 C 136.800 221.867,137.067 221.600,137.600 221.600 C 138.133 221.600,138.400 221.333,138.400 220.800 C 138.400 220.267,138.667 220.000,139.200 220.000 C 139.733 220.000,140.000 219.733,140.000 219.200 C 140.000 218.667,140.267 218.400,140.800 218.400 C 141.317 218.400,141.600 218.133,141.600 217.647 C 141.600 217.230,141.957 216.800,142.400 216.684 C 143.013 216.524,143.200 216.138,143.200 215.037 C 143.200 213.867,143.348 213.600,144.000 213.600 C 144.667 213.600,144.800 213.333,144.800 212.000 C 144.800 210.667,144.933 210.400,145.600 210.400 C 146.309 210.400,146.400 210.133,146.400 208.047 C 146.400 206.017,146.512 205.664,147.213 205.481 C 147.980 205.280,148.020 205.005,147.913 200.734 L 147.800 196.200 141.500 196.090 C 135.531 195.985,135.200 195.938,135.200 195.190 C 135.200 194.667,134.930 194.400,134.400 194.400 C 133.733 194.400,133.600 194.133,133.600 192.800 C 133.600 191.467,133.467 191.200,132.800 191.200 C 132.133 191.200,132.000 190.933,132.000 189.600 C 132.000 188.267,131.867 188.000,131.200 188.000 C 130.533 188.000,130.400 187.733,130.400 186.400 C 130.400 185.067,130.267 184.800,129.600 184.800 C 128.933 184.800,128.800 184.533,128.800 183.200 C 128.800 181.867,128.667 181.600,128.000 181.600 C 127.333 181.600,127.200 181.333,127.200 180.000 C 127.200 178.667,127.067 178.400,126.400 178.400 C 125.733 178.400,125.600 178.133,125.600 176.800 C 125.600 175.467,125.467 175.200,124.800 175.200 C 124.133 175.200,124.000 174.933,124.000 173.600 C 124.000 172.267,123.867 172.000,123.200 172.000 C 122.533 172.000,122.400 171.733,122.400 170.400 C 122.400 169.067,122.267 168.800,121.600 168.800 C 120.933 168.800,120.800 168.533,120.800 167.200 C 120.800 165.867,120.667 165.600,120.000 165.600 C 119.333 165.600,119.200 165.333,119.200 164.000 C 119.200 162.667,119.067 162.400,118.400 162.400 C 117.733 162.400,117.600 162.133,117.600 160.800 C 117.600 159.467,117.467 159.200,116.800 159.200 C 116.133 159.200,116.000 158.933,116.000 157.600 C 116.000 156.267,115.867 156.000,115.200 156.000 C 114.533 156.000,114.400 155.733,114.400 154.400 C 114.400 153.067,114.267 152.800,113.600 152.800 C 112.933 152.800,112.800 152.533,112.800 151.200 C 112.800 149.867,112.667 149.600,112.000 149.600 C 111.333 149.600,111.200 149.333,111.200 148.000 C 111.200 146.667,111.067 146.400,110.400 146.400 C 109.733 146.400,109.600 146.133,109.600 144.800 C 109.600 143.467,109.467 143.200,108.800 143.200 C 108.133 143.200,108.000 142.933,108.000 141.600 C 108.000 140.267,107.867 140.000,107.200 140.000 C 106.533 140.000,106.400 139.733,106.400 138.400 C 106.400 137.067,106.267 136.800,105.600 136.800 C 104.933 136.800,104.800 136.533,104.800 135.200 C 104.800 133.867,104.667 133.600,104.000 133.600 C 103.333 133.600,103.200 133.333,103.200 132.000 C 103.200 130.667,103.067 130.400,102.400 130.400 C 101.733 130.400,101.600 130.133,101.600 128.800 C 101.600 127.467,101.467 127.200,100.800 127.200 C 100.133 127.200,100.000 126.933,100.000 125.600 C 100.000 124.267,100.133 124.000,100.800 124.000 C 101.333 124.000,101.600 123.733,101.600 123.200 C 101.600 122.667,101.867 122.400,102.400 122.400 C 102.933 122.400,103.200 122.133,103.200 121.600 C 103.200 121.067,103.467 120.800,104.000 120.800 C 104.533 120.800,104.800 120.533,104.800 120.000 C 104.800 119.333,105.067 119.200,106.400 119.200 C 107.733 119.200,108.000 119.333,108.000 120.000 C 108.000 120.787,108.267 120.800,123.837 120.800 C 139.338 120.800,139.679 120.783,139.884 120.000 C 140.078 119.259,140.430 119.200,144.684 119.200 C 148.938 119.200,149.290 119.141,149.484 118.400 C 149.670 117.690,150.030 117.600,152.684 117.600 C 155.338 117.600,155.698 117.510,155.884 116.800 C 156.061 116.123,156.430 116.000,158.284 116.000 C 160.138 116.000,160.507 115.877,160.684 115.200 C 160.848 114.573,161.230 114.400,162.447 114.400 C 163.733 114.400,164.000 114.263,164.000 113.600 C 164.000 112.895,164.267 112.800,166.237 112.800 C 168.138 112.800,168.506 112.680,168.684 112.000 C 168.843 111.394,169.230 111.200,170.284 111.200 C 171.338 111.200,171.725 111.006,171.884 110.400 C 172.043 109.794,172.430 109.600,173.484 109.600 C 174.538 109.600,174.925 109.406,175.084 108.800 C 175.243 108.194,175.630 108.000,176.684 108.000 C 177.738 108.000,178.125 107.806,178.284 107.200 C 178.400 106.757,178.830 106.400,179.247 106.400 C 179.733 106.400,180.000 106.117,180.000 105.600 C 180.000 104.948,180.267 104.800,181.437 104.800 C 182.538 104.800,182.924 104.613,183.084 104.000 C 183.200 103.557,183.630 103.200,184.047 103.200 C 184.533 103.200,184.800 102.917,184.800 102.400 C 184.800 101.867,185.067 101.600,185.600 101.600 C 186.119 101.600,186.400 101.333,186.400 100.842 C 186.400 100.250,186.750 100.051,188.000 99.931 L 189.600 99.779 189.600 193.489 L 189.600 287.200 176.800 287.200 C 164.267 287.200,164.000 287.217,164.000 288.000 C 164.000 288.533,163.733 288.800,163.200 288.800 C 162.427 288.800,162.400 289.067,162.400 296.800 L 162.400 304.800 148.800 304.800 L 135.200 304.800 135.200 316.171 C 135.200 325.976,135.287 327.629,135.829 328.171 C 136.908 329.251,265.992 329.118,266.274 328.037 C 266.384 327.617,266.817 327.184,267.237 327.074 C 268.458 326.755,268.422 306.400,267.200 306.400 C 266.667 306.400,266.400 306.133,266.400 305.600 C 266.400 304.817,266.133 304.800,253.600 304.800 L 240.800 304.800 240.800 296.963 C 240.800 289.588,240.755 289.113,240.037 288.926 C 239.617 288.816,239.184 288.383,239.074 287.963 C 238.883 287.233,238.334 287.200,226.237 287.200 L 213.600 287.200 213.600 194.400 C 213.600 103.782,213.618 101.600,214.353 101.600 C 214.770 101.600,215.200 101.957,215.316 102.400 C 215.476 103.013,215.862 103.200,216.963 103.200 C 218.133 103.200,218.400 103.348,218.400 104.000 C 218.400 104.517,218.667 104.800,219.153 104.800 C 219.570 104.800,220.000 105.157,220.116 105.600 C 220.276 106.213,220.662 106.400,221.763 106.400 C 222.933 106.400,223.200 106.548,223.200 107.200 C 223.200 107.867,223.467 108.000,224.800 108.000 C 226.133 108.000,226.400 108.133,226.400 108.800 C 226.400 109.317,226.667 109.600,227.153 109.600 C 227.570 109.600,228.000 109.957,228.116 110.400 C 228.294 111.080,228.662 111.200,230.563 111.200 C 232.533 111.200,232.800 111.295,232.800 112.000 C 232.800 112.667,233.067 112.800,234.400 112.800 C 235.733 112.800,236.000 112.933,236.000 113.600 C 236.000 114.311,236.267 114.400,238.400 114.400 C 240.533 114.400,240.800 114.489,240.800 115.200 C 240.800 115.911,241.067 116.000,243.200 116.000 C 245.333 116.000,245.600 116.089,245.600 116.800 C 245.600 117.509,245.867 117.600,247.953 117.600 C 249.970 117.600,250.337 117.714,250.516 118.400 C 250.710 119.141,251.062 119.200,255.316 119.200 C 259.570 119.200,259.922 119.259,260.116 120.000 C 260.321 120.784,260.662 120.800,276.800 120.800 C 292.938 120.800,293.279 120.784,293.484 120.000 C 293.733 119.050,295.200 118.911,295.200 119.837 C 295.200 120.188,295.560 120.569,296.000 120.684 C 296.443 120.800,296.800 121.230,296.800 121.647 C 296.800 122.133,297.083 122.400,297.600 122.400 C 298.133 122.400,298.400 122.667,298.400 123.200 C 298.400 123.733,298.667 124.000,299.200 124.000 C 299.863 124.000,300.000 124.267,300.000 125.553 C 300.000 126.770,299.827 127.152,299.200 127.316 C 298.594 127.475,298.400 127.862,298.400 128.916 C 298.400 129.970,298.206 130.357,297.600 130.516 C 296.994 130.675,296.800 131.062,296.800 132.116 C 296.800 133.170,296.606 133.557,296.000 133.716 C 295.394 133.875,295.200 134.262,295.200 135.316 C 295.200 136.370,295.006 136.757,294.400 136.916 C 293.794 137.075,293.600 137.462,293.600 138.516 C 293.600 139.570,293.406 139.957,292.800 140.116 C 292.194 140.275,292.000 140.662,292.000 141.716 C 292.000 142.770,291.806 143.157,291.200 143.316 C 290.594 143.475,290.400 143.862,290.400 144.916 C 290.400 145.970,290.206 146.357,289.600 146.516 C 288.994 146.675,288.800 147.062,288.800 148.116 C 288.800 149.170,288.606 149.557,288.000 149.716 C 287.394 149.875,287.200 150.262,287.200 151.316 C 287.200 152.370,287.006 152.757,286.400 152.916 C 285.794 153.075,285.600 153.462,285.600 154.516 C 285.600 155.570,285.406 155.957,284.800 156.116 C 284.194 156.275,284.000 156.662,284.000 157.716 C 284.000 158.770,283.806 159.157,283.200 159.316 C 282.594 159.475,282.400 159.862,282.400 160.916 C 282.400 161.970,282.206 162.357,281.600 162.516 C 280.994 162.675,280.800 163.062,280.800 164.116 C 280.800 165.170,280.606 165.557,280.000 165.716 C 279.394 165.875,279.200 166.262,279.200 167.316 C 279.200 168.370,279.006 168.757,278.400 168.916 C 277.794 169.075,277.600 169.462,277.600 170.516 C 277.600 171.570,277.406 171.957,276.800 172.116 C 276.194 172.275,276.000 172.662,276.000 173.716 C 276.000 174.770,275.806 175.157,275.200 175.316 C 274.601 175.473,274.400 175.862,274.400 176.866 C 274.400 177.774,274.142 178.369,273.600 178.707 C 273.115 179.010,272.800 179.640,272.800 180.307 C 272.800 180.974,272.485 181.604,272.000 181.907 C 271.515 182.210,271.200 182.840,271.200 183.507 C 271.200 184.174,270.885 184.804,270.400 185.107 C 269.915 185.410,269.600 186.040,269.600 186.707 C 269.600 187.374,269.285 188.004,268.800 188.307 C 268.315 188.610,268.000 189.240,268.000 189.907 C 268.000 190.574,267.685 191.204,267.200 191.507 C 266.754 191.786,266.400 192.440,266.400 192.985 C 266.400 195.392,264.904 196.000,258.982 196.000 L 253.600 196.000 253.600 197.000 C 253.600 197.622,253.373 198.000,253.000 198.000 C 252.555 198.000,252.400 198.468,252.400 199.813 C 252.400 201.055,252.589 201.698,253.000 201.855 C 253.467 202.035,253.600 202.828,253.600 205.443 C 253.600 208.533,253.664 208.800,254.400 208.800 C 255.105 208.800,255.200 209.067,255.200 211.037 C 255.200 212.938,255.320 213.306,256.000 213.484 C 256.443 213.600,256.800 214.030,256.800 214.447 C 256.800 214.933,257.083 215.200,257.600 215.200 C 258.252 215.200,258.400 215.467,258.400 216.637 C 258.400 217.738,258.587 218.124,259.200 218.284 C 259.643 218.400,260.000 218.830,260.000 219.247 C 260.000 219.733,260.283 220.000,260.800 220.000 C 261.333 220.000,261.600 220.267,261.600 220.800 C 261.600 221.333,261.867 221.600,262.400 221.600 C 262.865 221.600,263.200 221.867,263.200 222.237 C 263.200 222.588,263.543 222.965,263.963 223.074 C 264.383 223.184,264.816 223.617,264.926 224.037 C 265.075 224.609,265.485 224.800,266.563 224.800 C 267.733 224.800,268.000 224.948,268.000 225.600 C 268.000 226.117,268.267 226.400,268.753 226.400 C 269.170 226.400,269.600 226.757,269.716 227.200 C 269.876 227.813,270.262 228.000,271.363 228.000 C 272.533 228.000,272.800 228.148,272.800 228.800 C 272.800 229.467,273.067 229.600,274.400 229.600 C 275.733 229.600,276.000 229.733,276.000 230.400 C 276.000 231.063,276.267 231.200,277.553 231.200 C 278.770 231.200,279.152 231.373,279.316 232.000 C 279.493 232.677,279.862 232.800,281.716 232.800 C 283.570 232.800,283.939 232.923,284.116 233.600 C 284.302 234.311,284.662 234.400,287.363 234.400 C 290.133 234.400,290.400 234.470,290.400 235.200 C 290.400 236.459,323.555 236.459,323.884 235.200 C 324.070 234.490,324.430 234.400,327.084 234.400 C 329.738 234.400,330.098 234.310,330.284 233.600 C 330.461 232.923,330.830 232.800,332.684 232.800 C 334.538 232.800,334.907 232.677,335.084 232.000 C 335.248 231.373,335.630 231.200,336.847 231.200 C 338.133 231.200,338.400 231.063,338.400 230.400 C 338.400 229.733,338.667 229.600,340.000 229.600 C 341.333 229.600,341.600 229.467,341.600 228.800 C 341.600 228.148,341.867 228.000,343.037 228.000 C 344.138 228.000,344.524 227.813,344.684 227.200 C 344.800 226.757,345.230 226.400,345.647 226.400 C 346.133 226.400,346.400 226.117,346.400 225.600 C 346.400 224.948,346.667 224.800,347.837 224.800 C 348.915 224.800,349.325 224.609,349.474 224.037 C 349.584 223.617,350.017 223.184,350.437 223.074 C 350.857 222.965,351.200 222.588,351.200 222.237 C 351.200 221.867,351.535 221.600,352.000 221.600 C 352.517 221.600,352.800 221.333,352.800 220.847 C 352.800 220.430,353.157 220.000,353.600 219.884 C 354.040 219.769,354.400 219.409,354.400 219.084 C 354.400 218.759,354.760 218.399,355.200 218.284 C 355.813 218.124,356.000 217.738,356.000 216.637 C 356.000 215.467,356.148 215.200,356.800 215.200 C 357.317 215.200,357.600 214.933,357.600 214.447 C 357.600 214.030,357.957 213.600,358.400 213.484 C 359.080 213.306,359.200 212.938,359.200 211.037 C 359.200 209.067,359.295 208.800,360.000 208.800 C 360.767 208.800,360.800 208.533,360.800 202.400 L 360.800 196.000 354.400 196.000 L 348.000 196.000 348.000 194.400 C 348.000 193.067,347.867 192.800,347.200 192.800 C 346.533 192.800,346.400 192.533,346.400 191.200 C 346.400 189.867,346.267 189.600,345.600 189.600 C 344.933 189.600,344.800 189.333,344.800 188.000 C 344.800 186.667,344.667 186.400,344.000 186.400 C 343.333 186.400,343.200 186.133,343.200 184.800 C 343.200 183.467,343.067 183.200,342.400 183.200 C 341.733 183.200,341.600 182.933,341.600 181.600 C 341.600 180.267,341.467 180.000,340.800 180.000 C 340.133 180.000,340.000 179.733,340.000 178.400 C 340.000 177.067,339.867 176.800,339.200 176.800 C 338.533 176.800,338.400 176.533,338.400 175.200 C 338.400 173.867,338.267 173.600,337.600 173.600 C 336.933 173.600,336.800 173.333,336.800 172.000 C 336.800 170.667,336.667 170.400,336.000 170.400 C 335.333 170.400,335.200 170.133,335.200 168.800 C 335.200 167.467,335.067 167.200,334.400 167.200 C 333.733 167.200,333.600 166.933,333.600 165.600 C 333.600 164.267,333.467 164.000,332.800 164.000 C 332.133 164.000,332.000 163.733,332.000 162.400 C 332.000 161.067,331.867 160.800,331.200 160.800 C 330.533 160.800,330.400 160.533,330.400 159.200 C 330.400 157.867,330.267 157.600,329.600 157.600 C 328.933 157.600,328.800 157.333,328.800 156.000 C 328.800 154.667,328.667 154.400,328.000 154.400 C 327.333 154.400,327.200 154.133,327.200 152.800 C 327.200 151.467,327.067 151.200,326.400 151.200 C 325.707 151.200,325.600 150.933,325.600 149.203 C 325.600 147.640,325.426 147.098,324.800 146.707 C 324.315 146.404,324.000 145.774,324.000 145.107 C 324.000 144.440,323.685 143.810,323.200 143.507 C 322.715 143.204,322.400 142.574,322.400 141.907 C 322.400 141.240,322.085 140.610,321.600 140.307 C 321.115 140.004,320.800 139.374,320.800 138.707 C 320.800 138.040,320.485 137.410,320.000 137.107 C 319.515 136.804,319.200 136.174,319.200 135.507 C 319.200 134.840,318.885 134.210,318.400 133.907 C 317.915 133.604,317.600 132.974,317.600 132.307 C 317.600 131.640,317.285 131.010,316.800 130.707 C 316.258 130.369,316.000 129.774,316.000 128.866 C 316.000 127.884,315.796 127.472,315.239 127.326 C 313.997 127.001,313.863 124.000,315.089 124.000 C 315.733 124.000,316.000 123.766,316.000 123.200 C 316.000 122.667,316.267 122.400,316.800 122.400 C 317.317 122.400,317.600 122.133,317.600 121.647 C 317.600 121.230,317.957 120.800,318.400 120.684 C 319.161 120.485,319.200 120.138,319.200 113.600 C 319.200 107.062,319.161 106.715,318.400 106.516 C 317.957 106.400,317.600 105.970,317.600 105.553 C 317.600 105.067,317.317 104.800,316.800 104.800 C 316.267 104.800,316.000 104.533,316.000 104.000 C 316.000 103.483,315.733 103.200,315.247 103.200 C 314.830 103.200,314.400 102.843,314.284 102.400 C 314.085 101.639,313.738 101.600,307.200 101.600 C 300.662 101.600,300.315 101.639,300.116 102.400 C 300.000 102.843,299.570 103.200,299.153 103.200 C 298.667 103.200,298.400 103.483,298.400 104.000 C 298.400 104.533,298.133 104.800,297.600 104.800 C 297.083 104.800,296.800 105.067,296.800 105.553 C 296.800 105.970,296.443 106.400,296.000 106.516 C 295.320 106.694,295.200 107.062,295.200 108.963 L 295.200 111.200 292.000 111.200 C 289.067 111.200,288.800 111.267,288.800 112.000 C 288.800 112.782,288.533 112.800,276.800 112.800 C 265.067 112.800,264.800 112.782,264.800 112.000 C 264.800 111.244,264.533 111.200,260.000 111.200 C 255.467 111.200,255.200 111.156,255.200 110.400 C 255.200 109.667,254.933 109.600,252.000 109.600 C 249.067 109.600,248.800 109.533,248.800 108.800 C 248.800 108.089,248.533 108.000,246.400 108.000 C 244.267 108.000,244.000 107.911,244.000 107.200 C 244.000 106.537,243.733 106.400,242.447 106.400 C 241.230 106.400,240.848 106.227,240.684 105.600 C 240.506 104.920,240.138 104.800,238.237 104.800 C 236.267 104.800,236.000 104.705,236.000 104.000 C 236.000 103.333,235.733 103.200,234.400 103.200 C 233.067 103.200,232.800 103.067,232.800 102.400 C 232.800 101.733,232.533 101.600,231.200 101.600 C 229.867 101.600,229.600 101.467,229.600 100.800 C 229.600 100.283,229.333 100.000,228.847 100.000 C 228.430 100.000,228.000 99.643,227.884 99.200 C 227.724 98.587,227.338 98.400,226.237 98.400 C 225.067 98.400,224.800 98.252,224.800 97.600 C 224.800 97.083,224.533 96.800,224.047 96.800 C 223.630 96.800,223.200 96.443,223.084 96.000 C 222.924 95.387,222.538 95.200,221.437 95.200 C 220.267 95.200,220.000 95.052,220.000 94.400 C 220.000 93.867,219.733 93.600,219.200 93.600 C 218.533 93.600,218.400 93.333,218.400 92.000 C 218.400 90.662,218.532 90.400,219.207 90.400 C 219.997 90.400,220.012 90.197,219.907 80.900 L 219.800 71.400 201.500 71.296 L 183.200 71.192 183.200 81.549 M212.720 76.880 C 213.349 77.509,213.379 84.642,212.755 85.028 C 211.840 85.593,189.938 85.309,189.353 84.724 C 188.453 83.824,188.516 77.597,189.432 76.927 C 190.425 76.201,211.997 76.157,212.720 76.880 M205.759 91.166 C 206.679 91.929,206.752 287.365,205.833 288.624 C 204.858 289.958,197.620 289.777,196.920 288.400 C 196.026 286.642,196.177 91.880,197.073 90.984 C 197.912 90.145,204.700 90.287,205.759 91.166 M96.424 108.081 C 102.361 112.470,99.635 119.750,92.304 119.085 C 89.581 118.838,88.300 117.921,87.564 115.691 C 85.663 109.931,91.799 104.661,96.424 108.081 M309.999 107.878 C 314.047 110.153,314.598 115.125,311.148 118.247 C 309.910 119.368,304.461 119.336,303.186 118.200 C 297.591 113.219,303.521 104.236,309.999 107.878 M308.000 133.600 C 308.000 134.933,308.133 135.200,308.800 135.200 C 309.467 135.200,309.600 135.467,309.600 136.800 C 309.600 138.133,309.733 138.400,310.400 138.400 C 311.067 138.400,311.200 138.667,311.200 140.000 C 311.200 141.333,311.333 141.600,312.000 141.600 C 312.667 141.600,312.800 141.867,312.800 143.200 C 312.800 144.533,312.933 144.800,313.600 144.800 C 314.267 144.800,314.400 145.067,314.400 146.400 C 314.400 147.733,314.533 148.000,315.200 148.000 C 315.867 148.000,316.000 148.267,316.000 149.600 C 316.000 150.933,316.133 151.200,316.800 151.200 C 317.467 151.200,317.600 151.467,317.600 152.800 C 317.600 154.133,317.733 154.400,318.400 154.400 C 319.067 154.400,319.200 154.667,319.200 156.000 C 319.200 157.333,319.333 157.600,320.000 157.600 C 320.667 157.600,320.800 157.867,320.800 159.200 C 320.800 160.533,320.933 160.800,321.600 160.800 C 322.267 160.800,322.400 161.067,322.400 162.400 C 322.400 163.733,322.533 164.000,323.200 164.000 C 323.867 164.000,324.000 164.267,324.000 165.600 C 324.000 166.933,324.133 167.200,324.800 167.200 C 325.467 167.200,325.600 167.467,325.600 168.800 C 325.600 170.133,325.733 170.400,326.400 170.400 C 327.067 170.400,327.200 170.667,327.200 172.000 C 327.200 173.333,327.333 173.600,328.000 173.600 C 328.667 173.600,328.800 173.867,328.800 175.200 C 328.800 176.533,328.933 176.800,329.600 176.800 C 330.267 176.800,330.400 177.067,330.400 178.400 C 330.400 179.733,330.533 180.000,331.200 180.000 C 331.867 180.000,332.000 180.267,332.000 181.600 C 332.000 182.933,332.133 183.200,332.800 183.200 C 333.467 183.200,333.600 183.467,333.600 184.800 C 333.600 186.133,333.733 186.400,334.400 186.400 C 335.067 186.400,335.200 186.667,335.200 188.000 C 335.200 189.333,335.333 189.600,336.000 189.600 C 336.667 189.600,336.800 189.867,336.800 191.200 C 336.800 192.533,336.933 192.800,337.600 192.800 C 338.267 192.800,338.400 193.067,338.400 194.400 L 338.400 196.000 307.200 196.000 L 276.000 196.000 276.000 194.400 C 276.000 193.067,276.133 192.800,276.800 192.800 C 277.467 192.800,277.600 192.533,277.600 191.200 C 277.600 189.867,277.733 189.600,278.400 189.600 C 279.067 189.600,279.200 189.333,279.200 188.000 C 279.200 186.667,279.333 186.400,280.000 186.400 C 280.667 186.400,280.800 186.133,280.800 184.800 C 280.800 183.467,280.933 183.200,281.600 183.200 C 282.267 183.200,282.400 182.933,282.400 181.600 C 282.400 180.267,282.533 180.000,283.200 180.000 C 283.867 180.000,284.000 179.733,284.000 178.400 C 284.000 177.067,284.133 176.800,284.800 176.800 C 285.467 176.800,285.600 176.533,285.600 175.200 C 285.600 173.867,285.733 173.600,286.400 173.600 C 287.067 173.600,287.200 173.333,287.200 172.000 C 287.200 170.667,287.333 170.400,288.000 170.400 C 288.667 170.400,288.800 170.133,288.800 168.800 C 288.800 167.467,288.933 167.200,289.600 167.200 C 290.267 167.200,290.400 166.933,290.400 165.600 C 290.400 164.267,290.533 164.000,291.200 164.000 C 291.867 164.000,292.000 163.733,292.000 162.400 C 292.000 161.067,292.133 160.800,292.800 160.800 C 293.467 160.800,293.600 160.533,293.600 159.200 C 293.600 157.867,293.733 157.600,294.400 157.600 C 295.067 157.600,295.200 157.333,295.200 156.000 C 295.200 154.667,295.333 154.400,296.000 154.400 C 296.667 154.400,296.800 154.133,296.800 152.800 C 296.800 151.467,296.933 151.200,297.600 151.200 C 298.267 151.200,298.400 150.933,298.400 149.600 C 298.400 148.267,298.533 148.000,299.200 148.000 C 299.867 148.000,300.000 147.733,300.000 146.400 C 300.000 145.067,300.133 144.800,300.800 144.800 C 301.467 144.800,301.600 144.533,301.600 143.200 C 301.600 141.867,301.733 141.600,302.400 141.600 C 303.067 141.600,303.200 141.333,303.200 140.000 C 303.200 138.667,303.333 138.400,304.000 138.400 C 304.667 138.400,304.800 138.133,304.800 136.800 C 304.800 135.467,304.933 135.200,305.600 135.200 C 306.267 135.200,306.400 134.933,306.400 133.600 C 306.400 132.267,306.533 132.000,307.200 132.000 C 307.867 132.000,308.000 132.267,308.000 133.600 M94.434 135.093 C 95.003 135.242,95.200 135.650,95.200 136.684 C 95.200 137.738,95.394 138.125,96.000 138.284 C 96.606 138.443,96.800 138.830,96.800 139.884 C 96.800 140.938,96.994 141.325,97.600 141.484 C 98.206 141.643,98.400 142.030,98.400 143.084 C 98.400 144.138,98.594 144.525,99.200 144.684 C 99.806 144.843,100.000 145.230,100.000 146.284 C 100.000 147.338,100.194 147.725,100.800 147.884 C 101.406 148.043,101.600 148.430,101.600 149.484 C 101.600 150.538,101.794 150.925,102.400 151.084 C 103.006 151.243,103.200 151.630,103.200 152.684 C 103.200 153.738,103.394 154.125,104.000 154.284 C 104.606 154.443,104.800 154.830,104.800 155.884 C 104.800 156.938,104.994 157.325,105.600 157.484 C 106.206 157.643,106.400 158.030,106.400 159.084 C 106.400 160.138,106.594 160.525,107.200 160.684 C 107.806 160.843,108.000 161.230,108.000 162.284 C 108.000 163.338,108.194 163.725,108.800 163.884 C 109.406 164.043,109.600 164.430,109.600 165.484 C 109.600 166.538,109.794 166.925,110.400 167.084 C 111.006 167.243,111.200 167.630,111.200 168.684 C 111.200 169.738,111.394 170.125,112.000 170.284 C 112.606 170.443,112.800 170.830,112.800 171.884 C 112.800 172.938,112.994 173.325,113.600 173.484 C 114.206 173.643,114.400 174.030,114.400 175.084 C 114.400 176.138,114.594 176.525,115.200 176.684 C 115.806 176.843,116.000 177.230,116.000 178.284 C 116.000 179.338,116.194 179.725,116.800 179.884 C 117.406 180.043,117.600 180.430,117.600 181.484 C 117.600 182.538,117.794 182.925,118.400 183.084 C 119.006 183.243,119.200 183.630,119.200 184.684 C 119.200 185.738,119.394 186.125,120.000 186.284 C 120.606 186.443,120.800 186.830,120.800 187.884 C 120.800 188.938,120.994 189.325,121.600 189.484 C 122.206 189.643,122.400 190.030,122.400 191.084 C 122.400 192.115,122.597 192.526,123.161 192.674 C 123.709 192.817,123.965 193.312,124.072 194.437 L 124.221 196.000 92.911 196.000 C 61.867 196.000,61.600 195.993,61.600 195.200 C 61.600 194.667,61.867 194.400,62.400 194.400 C 63.067 194.400,63.200 194.133,63.200 192.800 C 63.200 191.467,63.333 191.200,64.000 191.200 C 64.667 191.200,64.800 190.933,64.800 189.600 C 64.800 188.267,64.933 188.000,65.600 188.000 C 66.267 188.000,66.400 187.733,66.400 186.400 C 66.400 185.067,66.533 184.800,67.200 184.800 C 67.867 184.800,68.000 184.533,68.000 183.200 C 68.000 181.867,68.133 181.600,68.800 181.600 C 69.467 181.600,69.600 181.333,69.600 180.000 C 69.600 178.667,69.733 178.400,70.400 178.400 C 71.067 178.400,71.200 178.133,71.200 176.800 C 71.200 175.467,71.333 175.200,72.000 175.200 C 72.667 175.200,72.800 174.933,72.800 173.600 C 72.800 172.267,72.933 172.000,73.600 172.000 C 74.267 172.000,74.400 171.733,74.400 170.400 C 74.400 169.067,74.533 168.800,75.200 168.800 C 75.863 168.800,76.000 168.533,76.000 167.247 C 76.000 166.030,76.173 165.648,76.800 165.484 C 77.406 165.325,77.600 164.938,77.600 163.884 C 77.600 162.830,77.794 162.443,78.400 162.284 C 79.006 162.125,79.200 161.738,79.200 160.684 C 79.200 159.630,79.394 159.243,80.000 159.084 C 80.606 158.925,80.800 158.538,80.800 157.484 C 80.800 156.430,80.994 156.043,81.600 155.884 C 82.206 155.725,82.400 155.338,82.400 154.284 C 82.400 153.230,82.594 152.843,83.200 152.684 C 83.806 152.525,84.000 152.138,84.000 151.084 C 84.000 150.030,84.194 149.643,84.800 149.484 C 85.406 149.325,85.600 148.938,85.600 147.884 C 85.600 146.830,85.794 146.443,86.400 146.284 C 87.006 146.125,87.200 145.738,87.200 144.684 C 87.200 143.630,87.394 143.243,88.000 143.084 C 88.606 142.925,88.800 142.538,88.800 141.484 C 88.800 140.430,88.994 140.043,89.600 139.884 C 90.206 139.725,90.400 139.338,90.400 138.284 C 90.400 137.230,90.594 136.843,91.200 136.684 C 91.809 136.525,92.000 136.138,92.000 135.067 C 92.000 133.496,93.283 132.718,93.534 134.136 C 93.608 134.552,94.013 134.983,94.434 135.093 M140.320 202.080 C 140.970 202.730,140.926 204.884,140.234 206.268 C 139.922 206.890,139.474 207.850,139.237 208.400 C 138.649 209.765,138.080 210.624,136.136 213.082 C 135.220 214.239,134.410 215.331,134.336 215.509 C 134.187 215.863,129.868 219.436,128.424 220.400 C 127.930 220.730,126.967 221.405,126.285 221.900 C 125.603 222.395,124.883 222.800,124.685 222.800 C 124.488 222.800,123.869 223.160,123.309 223.600 C 122.750 224.040,121.978 224.400,121.595 224.400 C 121.212 224.400,120.678 224.665,120.409 224.989 C 120.140 225.314,119.263 225.701,118.460 225.850 C 117.657 225.999,116.579 226.394,116.065 226.729 C 115.551 227.064,114.381 227.471,113.465 227.634 C 112.549 227.797,111.080 228.208,110.200 228.547 C 109.320 228.887,107.768 229.173,106.750 229.182 C 105.733 229.192,104.113 229.490,103.150 229.845 C 100.841 230.697,86.363 230.845,83.600 230.045 C 82.610 229.758,80.630 229.391,79.200 229.227 C 77.770 229.064,76.024 228.631,75.320 228.265 C 74.616 227.899,73.623 227.600,73.114 227.600 C 72.605 227.600,71.516 227.240,70.696 226.800 C 69.875 226.360,68.850 226.000,68.419 226.000 C 67.597 226.000,61.060 222.717,59.969 221.756 C 59.621 221.450,59.204 221.200,59.042 221.200 C 58.087 221.200,50.173 213.630,49.036 211.629 C 46.084 206.433,45.049 202.450,46.500 201.865 C 47.685 201.387,139.838 201.598,140.320 202.080 M354.206 202.263 C 354.590 202.647,354.782 203.278,354.662 203.763 C 353.869 206.976,353.599 207.738,353.036 208.361 C 352.686 208.747,352.400 209.364,352.400 209.731 C 352.400 210.099,352.040 210.760,351.600 211.200 C 351.160 211.640,350.800 212.179,350.800 212.398 C 350.800 212.974,343.937 219.600,343.341 219.600 C 343.065 219.600,342.696 219.826,342.520 220.101 C 342.093 220.771,339.218 222.656,338.136 222.975 C 337.661 223.116,337.054 223.494,336.787 223.815 C 336.520 224.137,335.986 224.400,335.600 224.400 C 335.214 224.400,334.678 224.665,334.409 224.989 C 334.140 225.314,333.263 225.695,332.460 225.838 C 331.657 225.981,330.439 226.435,329.753 226.849 C 329.067 227.262,327.892 227.600,327.142 227.600 C 326.392 227.600,325.347 227.902,324.820 228.271 C 324.291 228.642,322.596 229.071,321.031 229.231 C 319.474 229.390,317.390 229.742,316.400 230.013 C 313.449 230.820,299.910 230.730,297.227 229.884 C 296.032 229.508,294.322 229.192,293.427 229.182 C 292.532 229.173,291.080 228.888,290.200 228.549 C 289.320 228.210,287.758 227.781,286.730 227.596 C 285.701 227.410,284.441 226.992,283.930 226.668 C 283.418 226.344,282.427 225.959,281.728 225.814 C 281.028 225.668,280.241 225.290,279.979 224.974 C 279.717 224.658,279.188 224.400,278.805 224.400 C 278.422 224.400,277.679 224.078,277.154 223.684 C 276.629 223.290,275.750 222.752,275.200 222.487 C 266.987 218.535,257.185 205.272,260.229 202.229 C 261.219 201.238,353.215 201.272,354.206 202.263 M233.800 300.000 L 233.800 305.800 201.844 305.902 C 178.567 305.977,169.740 305.882,169.344 305.553 C 168.616 304.949,168.562 295.198,169.282 294.478 C 169.653 294.107,177.211 294.019,201.782 294.098 L 233.800 294.200 233.800 300.000 M260.516 310.755 C 261.592 311.829,261.150 321.695,260.000 322.280 C 259.205 322.684,247.104 322.789,200.970 322.794 L 142.939 322.800 142.038 321.841 C 140.907 320.637,141.157 312.043,142.358 310.842 C 143.203 309.997,259.670 309.911,260.516 310.755 " stroke="none" fill="#242424" fill-rule="evenodd"></path><path id="path3" d="M189.689 77.023 C 188.641 77.757,188.361 83.247,189.306 84.539 C 189.994 85.479,212.251 85.679,212.839 84.750 C 213.378 83.899,213.281 77.441,212.720 76.880 C 211.920 76.080,190.849 76.210,189.689 77.023 M212.387 78.166 C 212.618 78.774,212.592 80.111,212.317 81.773 L 211.880 84.413 201.456 84.307 L 191.032 84.200 190.684 82.800 C 189.225 76.930,188.706 77.200,201.424 77.200 L 212.020 77.200 212.387 78.166 M142.067 311.100 C 141.044 313.082,141.115 320.751,142.166 321.802 L 143.174 322.811 201.619 322.705 C 259.533 322.601,260.070 322.593,260.673 321.800 C 261.266 321.019,261.178 311.734,260.567 310.747 C 260.091 309.977,142.466 310.327,142.067 311.100 M259.261 313.830 C 259.411 314.693,259.728 315.907,259.967 316.526 C 260.568 318.089,260.509 320.612,259.857 321.152 C 259.459 321.483,243.755 321.576,200.957 321.501 L 142.600 321.400 142.701 317.200 C 142.756 314.890,142.869 312.820,142.950 312.600 C 143.048 312.336,162.751 312.210,201.043 312.230 L 258.988 312.259 259.261 313.830 " stroke="none" fill="#747c7c" fill-rule="evenodd"></path><path id="path4" d="M197.073 90.984 C 196.177 91.880,196.026 286.642,196.920 288.400 C 197.620 289.777,204.858 289.958,205.833 288.624 C 206.752 287.365,206.679 91.929,205.759 91.166 C 204.700 90.287,197.912 90.145,197.073 90.984 M90.321 107.975 C 87.588 109.721,86.551 112.622,87.564 115.691 C 88.886 119.697,95.623 120.600,98.362 117.139 C 102.400 112.037,95.777 104.490,90.321 107.975 M305.800 107.151 C 301.705 108.538,299.903 112.208,301.552 115.800 C 304.193 121.550,313.600 119.586,313.600 113.284 C 313.600 109.714,308.974 106.076,305.800 107.151 M95.243 108.860 C 100.666 110.485,98.913 118.000,93.111 118.000 C 89.438 118.000,88.428 117.010,88.420 113.400 C 88.410 109.459,91.153 107.635,95.243 108.860 M310.233 109.385 C 312.283 110.728,312.600 115.084,310.788 117.013 C 309.467 118.419,304.985 118.474,303.694 117.100 C 299.508 112.643,305.113 106.030,310.233 109.385 M46.500 201.865 C 45.049 202.450,46.084 206.433,49.036 211.629 C 50.173 213.630,58.087 221.200,59.042 221.200 C 59.204 221.200,59.621 221.450,59.969 221.756 C 61.060 222.717,67.597 226.000,68.419 226.000 C 68.850 226.000,69.875 226.360,70.696 226.800 C 71.516 227.240,72.605 227.600,73.114 227.600 C 73.623 227.600,74.616 227.899,75.320 228.265 C 76.024 228.631,77.770 229.064,79.200 229.227 C 80.630 229.391,82.610 229.758,83.600 230.045 C 86.363 230.845,100.841 230.697,103.150 229.845 C 104.113 229.490,105.733 229.192,106.750 229.182 C 107.768 229.173,109.320 228.887,110.200 228.547 C 111.080 228.208,112.549 227.797,113.465 227.634 C 114.381 227.471,115.551 227.064,116.065 226.729 C 116.579 226.394,117.657 225.999,118.460 225.850 C 119.263 225.701,120.140 225.314,120.409 224.989 C 120.678 224.665,121.212 224.400,121.595 224.400 C 121.978 224.400,122.750 224.040,123.309 223.600 C 123.869 223.160,124.488 222.800,124.685 222.800 C 124.883 222.800,125.603 222.395,126.285 221.900 C 126.967 221.405,127.930 220.730,128.424 220.400 C 129.868 219.436,134.187 215.863,134.336 215.509 C 134.410 215.331,135.220 214.239,136.136 213.082 C 138.080 210.624,138.649 209.765,139.237 208.400 C 139.474 207.850,139.922 206.890,140.234 206.268 C 140.926 204.884,140.970 202.730,140.320 202.080 C 139.838 201.598,47.685 201.387,46.500 201.865 M260.229 202.229 C 257.185 205.272,266.987 218.535,275.200 222.487 C 275.750 222.752,276.629 223.290,277.154 223.684 C 277.679 224.078,278.422 224.400,278.805 224.400 C 279.188 224.400,279.717 224.658,279.979 224.974 C 280.241 225.290,281.028 225.668,281.728 225.814 C 282.427 225.959,283.418 226.344,283.930 226.668 C 284.441 226.992,285.701 227.410,286.730 227.596 C 287.758 227.781,289.320 228.210,290.200 228.549 C 291.080 228.888,292.532 229.173,293.427 229.182 C 294.322 229.192,296.032 229.508,297.227 229.884 C 299.910 230.730,313.449 230.820,316.400 230.013 C 317.390 229.742,319.474 229.390,321.031 229.231 C 322.596 229.071,324.291 228.642,324.820 228.271 C 325.347 227.902,326.392 227.600,327.142 227.600 C 327.892 227.600,329.067 227.262,329.753 226.849 C 330.439 226.435,331.657 225.981,332.460 225.838 C 333.263 225.695,334.140 225.314,334.409 224.989 C 334.678 224.665,335.214 224.400,335.600 224.400 C 335.986 224.400,336.520 224.137,336.787 223.815 C 337.054 223.494,337.661 223.116,338.136 222.975 C 339.218 222.656,342.093 220.771,342.520 220.101 C 342.696 219.826,343.065 219.600,343.341 219.600 C 343.937 219.600,350.800 212.974,350.800 212.398 C 350.800 212.179,351.160 211.640,351.600 211.200 C 352.040 210.760,352.400 210.099,352.400 209.731 C 352.400 209.364,352.686 208.747,353.036 208.361 C 353.599 207.738,353.869 206.976,354.662 203.763 C 354.782 203.278,354.590 202.647,354.206 202.263 C 353.215 201.272,261.219 201.238,260.229 202.229 M139.054 203.614 C 139.579 204.139,138.890 206.990,137.900 208.389 C 137.515 208.933,137.200 209.538,137.200 209.733 C 137.200 210.651,129.611 218.766,128.729 218.792 C 128.579 218.796,128.210 219.047,127.909 219.348 C 127.608 219.650,126.830 220.197,126.180 220.564 C 125.531 220.931,124.280 221.666,123.400 222.197 C 122.520 222.728,121.530 223.269,121.200 223.401 C 120.870 223.532,119.934 223.991,119.121 224.420 C 118.307 224.849,117.315 225.200,116.915 225.200 C 116.515 225.200,115.516 225.560,114.696 226.000 C 113.875 226.440,112.707 226.808,112.101 226.818 C 111.496 226.827,110.280 227.120,109.400 227.468 C 104.195 229.527,82.501 229.774,78.155 227.824 C 77.471 227.517,76.073 227.140,75.049 226.986 C 74.025 226.833,72.522 226.368,71.709 225.954 C 70.896 225.539,69.892 225.200,69.477 225.200 C 69.063 225.200,68.246 224.931,67.662 224.603 C 67.078 224.274,66.150 223.820,65.600 223.593 C 65.050 223.367,63.880 222.744,63.000 222.210 C 62.120 221.676,60.950 221.012,60.400 220.736 C 59.243 220.154,55.211 216.999,53.583 215.400 C 52.221 214.063,50.626 212.000,49.970 210.727 C 49.553 209.917,49.043 209.150,48.836 209.023 C 48.630 208.895,48.346 208.265,48.205 207.623 C 48.064 206.981,47.690 206.241,47.374 205.979 C 46.783 205.488,46.594 203.940,47.067 203.467 C 47.529 203.004,138.590 203.150,139.054 203.614 M353.244 203.700 C 353.353 204.933,353.084 206.249,352.610 206.800 C 352.327 207.130,351.966 207.822,351.808 208.338 C 350.660 212.100,341.311 220.930,337.113 222.218 C 336.611 222.372,335.995 222.661,335.745 222.860 C 334.869 223.559,331.394 225.197,330.785 225.198 C 330.446 225.199,329.463 225.560,328.600 226.000 C 327.737 226.440,326.620 226.800,326.117 226.800 C 325.614 226.800,324.167 227.151,322.902 227.581 C 316.491 229.755,296.796 229.674,291.000 227.449 C 290.120 227.111,288.950 226.821,288.400 226.804 C 287.850 226.787,286.680 226.425,285.800 226.000 C 284.920 225.575,283.840 225.220,283.400 225.211 C 282.960 225.202,282.060 224.837,281.400 224.400 C 280.740 223.963,279.958 223.604,279.663 223.603 C 279.368 223.601,278.669 223.240,278.109 222.800 C 277.550 222.360,276.796 222.000,276.435 222.000 C 276.074 222.000,275.470 221.640,275.093 221.200 C 274.716 220.760,274.164 220.400,273.866 220.400 C 273.568 220.400,272.998 220.040,272.600 219.600 C 272.202 219.160,271.714 218.800,271.517 218.800 C 271.079 218.800,264.792 212.516,264.114 211.400 C 262.148 208.166,261.014 205.216,261.154 203.700 C 261.190 203.303,270.691 203.200,307.200 203.200 C 343.710 203.200,353.209 203.303,353.244 203.700 M169.282 294.478 C 168.562 295.198,168.616 304.949,169.344 305.553 C 169.740 305.882,178.567 305.977,201.844 305.902 L 233.800 305.800 233.800 300.000 L 233.800 294.200 201.782 294.098 C 177.211 294.019,169.653 294.107,169.282 294.478 M233.200 300.000 L 233.200 305.200 201.600 305.200 L 170.000 305.200 170.000 300.000 L 170.000 294.800 201.600 294.800 L 233.200 294.800 233.200 300.000 M148.524 310.299 C 151.562 310.367,156.422 310.367,159.324 310.299 C 162.226 310.231,159.740 310.175,153.800 310.175 C 147.860 310.175,145.486 310.231,148.524 310.299 M243.700 310.299 C 246.505 310.368,251.095 310.368,253.900 310.299 C 256.705 310.230,254.410 310.174,248.800 310.174 C 243.190 310.174,240.895 310.230,243.700 310.299 M260.893 313.600 C 260.893 314.370,260.975 314.685,261.076 314.300 C 261.176 313.915,261.176 313.285,261.076 312.900 C 260.975 312.515,260.893 312.830,260.893 313.600 " stroke="none" fill="#876923" fill-rule="evenodd"></path></g></svg>